<mxfile host="app.diagrams.net" modified="2023-09-27T07:44:01.285Z" agent="Mozilla/5.0 (Macintosh; Intel Mac OS X 10_15_7) AppleWebKit/605.1.15 (KHTML, like Gecko) Version/15.4 Safari/605.1.15" version="21.8.2" etag="cSOj17tHaQfJlOcjMh8X" type="github">
  <diagram name="Страница — 1" id="W-j_eZpgYILSmi-_il-G">
    <mxGraphModel>
      <root>
        <mxCell id="0" />
        <mxCell id="1" parent="0" />
      </root>
    </mxGraphModel>
  </diagram>
</mxfile>
